# xmcd CD database file
#
# Track frame offsets:
#	150
#	30457
#	53542
#	73292
#	93652
#	114056
#	136202
#	154242
#	173976
#	188971
#	203224
#	218686
#	237920
#	263717
#	274792
#
# Disc length: 3950 seconds
#
# Revision: 4
# Processed by: cddbd v1.5.1PL0 Copyright (c) Steve Scherf et al.
# Submitted via: CDex 1.51
#
DISCID=d30f6c0f
DTITLE=Jazz - Best Audiophile Voices II
DYEAR=2003
DGENRE=Jazz
TTITLE0=Over the Rainbow - Jane Monheit
TTITLE1=What a Wonderful World - Eva Cassidy
TTITLE2=It Wouldn't Have Made a Difference - Alison Krauss
TTITLE3=So Nice - Stacey Kent and Jim Tomlinson
TTITLE4=When I Dream - Carol Kidd
TTITLE5=Perhaps Love - Jheena Lodwick
TTITLE6=Marisa - Kelly Flint
TTITLE7=Song for the Journey - Tish Hinojosa
TTITLE8=Sylvia Hotel - Cheryl Wheeler
TTITLE9=You Light Up My Life - Salena jnes
TTITLE10=Ain't No Sunshine - Eva Cassidy
TTITLE11=The Look of Love - Jeanette Lindstrom and Steve Dobrogosz
TTITLE12=Too Young to Go Steady - Karrin Allyson
TTITLE13=Skylark - Monica Mancini
TTITLE14=Overjoyed - Nnenna Freelon
EXTD=YEAR: 2003
EXTT0=
EXTT1=
EXTT2=
EXTT3=
EXTT4=
EXTT5=
EXTT6=
EXTT7=
EXTT8=
EXTT9=
EXTT10=
EXTT11=
EXTT12=
EXTT13=
EXTT14=
PLAYORDER=
